<?xml version="1.0" encoding="UTF-8" standalone="no"?>
<svg width="33px" height="34px" viewBox="0 0 33 34" version="1.1" xmlns="http://www.w3.org/2000/svg" xmlns:xlink="http://www.w3.org/1999/xlink" xmlns:sketch="http://www.bohemiancoding.com/sketch/ns">
    <!-- Generator: Sketch 3.0.4 (8054) - http://www.bohemiancoding.com/sketch -->
    <title>print_R_blue</title>
    <desc>Created with Sketch.</desc>
    <defs></defs>
    <g id="Page-1" stroke="none" stroke-width="1" fill="none" fill-rule="evenodd" sketch:type="MSPage">
        <g id="print_R_blue" sketch:type="MSLayerGroup" transform="translate(1.000000, 1.000000)" fill="#0060A0">
            <path d="M-0.031,28.594 L0.583,28.594 C0.983,28.594 1.281,28.594 1.514,28.803 C1.716,28.987 1.818,29.232 1.818,29.53 C1.818,30.014 1.46,30.371 0.911,30.371 L0.512,30.371 L1.77,32.417 L2.265,32.417 L1.239,30.759 C1.836,30.717 2.265,30.169 2.265,29.524 C2.265,29.083 2.057,28.659 1.716,28.421 C1.418,28.212 1.096,28.177 0.696,28.177 L-0.443,28.177 L-0.443,32.417 L-0.031,32.417 L-0.031,28.594" id="Fill-1" sketch:type="MSShapeGroup"></path>
            <path d="M4.24,30.079 L4.24,28.594 L6.023,28.594 L6.023,28.177 L3.823,28.177 L3.823,32.417 L6.023,32.417 L6.023,32.006 L4.24,32.006 L4.24,30.496 L6.023,30.496 L6.023,30.079 L4.24,30.079" id="Fill-2" sketch:type="MSShapeGroup"></path>
            <path d="M7.608,32.417 L8.115,31.087 L10,31.087 L10.507,32.417 L10.955,32.417 L9.315,28.177 L8.813,28.177 L7.167,32.417 L7.608,32.417 L7.608,32.417 Z M9.857,30.705 L8.258,30.705 L9.052,28.576 L9.857,30.705 L9.857,30.705 Z" id="Fill-3" sketch:type="MSShapeGroup"></path>
            <path d="M14.072,32.417 L14.072,32.006 L12.581,32.006 L12.581,28.177 L12.164,28.177 L12.164,32.417 L14.072,32.417" id="Fill-4" sketch:type="MSShapeGroup"></path>
            <path d="M16.169,32.417 L16.169,28.594 L17.016,28.594 L17.016,28.177 L14.905,28.177 L14.905,28.594 L15.752,28.594 L15.752,32.417 L16.169,32.417" id="Fill-5" sketch:type="MSShapeGroup"></path>
            <path d="M18.338,30.275 C18.338,29.757 18.589,29.232 18.988,28.892 C19.293,28.636 19.662,28.498 20.056,28.498 C21.04,28.498 21.804,29.321 21.804,30.264 C21.804,31.308 21.04,32.101 20.086,32.101 C19.113,32.101 18.338,31.325 18.338,30.275 L18.338,30.275 Z M17.903,30.27 C17.903,31.534 18.839,32.501 20.056,32.501 C20.694,32.501 21.243,32.256 21.672,31.785 C22.048,31.373 22.232,30.872 22.232,30.27 C22.232,29.667 22.013,29.137 21.583,28.713 C21.165,28.302 20.658,28.093 20.062,28.093 C19.478,28.093 18.977,28.302 18.564,28.707 C18.135,29.131 17.903,29.68 17.903,30.27 L17.903,30.27 Z" id="Fill-6" sketch:type="MSShapeGroup"></path>
            <path d="M24.056,28.594 L24.67,28.594 C25.069,28.594 25.368,28.594 25.601,28.803 C25.804,28.987 25.904,29.232 25.904,29.53 C25.904,30.014 25.547,30.371 24.998,30.371 L24.599,30.371 L25.857,32.417 L26.352,32.417 L25.326,30.759 C25.923,30.717 26.352,30.169 26.352,29.524 C26.352,29.083 26.144,28.659 25.804,28.421 C25.505,28.212 25.183,28.177 24.783,28.177 L23.645,28.177 L23.645,32.417 L24.056,32.417 L24.056,28.594" id="Fill-7" sketch:type="MSShapeGroup"></path>
            <path d="M13.855,23.294 L13.855,13.147 L24.411,23.294 L13.855,23.294 L13.855,23.294 Z M3.324,2.867 L10.936,2.867 L10.936,23.263 L3.324,23.263 L3.324,2.867 Z M13.855,2.899 L16.864,2.899 C19.642,3.181 21.655,5.351 21.632,8.035 C21.607,10.694 19.615,12.804 16.864,13.084 L13.855,13.082 L13.855,2.899 L13.855,2.899 Z M-0.5,26.659 L26.5,26.659 L26.5,-0.341 L-0.5,-0.341 L-0.5,26.659 Z" id="Fill-8" sketch:type="MSShapeGroup"></path>
            <path d="M29.5212329,26.1973532 C30.0813699,26.1973532 30.3356849,26.3422162 30.3356849,26.7220792 C30.3356849,27.1083806 30.0813699,27.2178326 29.5212329,27.2178326 L28.9900685,27.2178326 L28.9900685,26.1973532 L29.5212329,26.1973532 L29.5212329,26.1973532 Z M29.6049315,25.9076272 L28.565137,25.9076272 L28.565137,28.7501614 L28.9900685,28.7501614 L28.9900685,27.5011203 L29.6532192,27.5011203 L30.2552055,28.7501614 L30.7445205,28.7501614 L30.1071233,27.4399559 C30.5223973,27.3820107 30.7799315,27.0858463 30.7799315,26.6931066 C30.7799315,26.1458463 30.390411,25.9076272 29.6049315,25.9076272 L29.6049315,25.9076272 Z M31.729589,27.3755724 C31.729589,27.9775587 31.5139041,28.508723 31.1050685,28.9111203 C30.6672603,29.3360518 30.1071233,29.5646135 29.5276712,29.5646135 C28.9514384,29.5646135 28.4041781,29.3360518 27.9824658,28.9175587 C27.5607534,28.4958463 27.335411,27.9485861 27.335411,27.369134 C27.335411,26.7864628 27.570411,26.2392025 27.9985616,25.8046135 C28.4041781,25.3957778 28.9353425,25.1672162 29.5276712,25.1672162 C30.1296575,25.1672162 30.6833562,25.3957778 31.1050685,25.8174902 C31.5106849,26.2231066 31.729589,26.7768052 31.729589,27.3755724 L31.729589,27.3755724 Z M29.5276712,24.9000244 C28.8580822,24.9000244 28.2593151,25.1479011 27.8021918,25.6082436 C27.3289726,26.0943395 27.065,26.7220792 27.065,27.369134 C27.065,28.0258463 27.3225342,28.6407093 27.7893151,29.1074902 C28.2593151,29.5871477 28.8741781,29.8414628 29.5276712,29.8414628 C30.174726,29.8414628 30.8056849,29.5807093 31.2885616,29.1010518 C31.7521233,28.6471477 32,28.0451614 32,27.369134 C32,26.7059833 31.7521233,26.0879011 31.2885616,25.6243395 C30.8217808,25.1479011 30.2036986,24.9000244 29.5276712,24.9000244 L29.5276712,24.9000244 Z" id="Fill-9" sketch:type="MSShapeGroup"></path>
        </g>
    </g>
</svg>